<svg width="18" height="18" viewBox="0 0 18 18" fill="none" xmlns="http://www.w3.org/2000/svg">
<path d="M15.2378 3.3336C14.0905 2.81237 12.8602 2.42836 11.5739 2.20841C11.5505 2.20417 11.5271 2.21477 11.515 2.23599C11.3568 2.51463 11.1815 2.87814 11.0588 3.16386C9.6753 2.95877 8.29889 2.95877 6.94374 3.16386C6.82099 2.87179 6.63936 2.51463 6.48043 2.23599C6.46836 2.21548 6.44496 2.20487 6.42154 2.20841C5.13593 2.42765 3.90567 2.81167 2.7577 3.3336C2.74776 3.33785 2.73924 3.34492 2.73359 3.35411C0.400044 6.80607 -0.239213 10.1732 0.0743851 13.4985C0.075804 13.5148 0.0850274 13.5304 0.0977985 13.5403C1.63741 14.6598 3.12878 15.3394 4.59246 15.7899C4.61588 15.797 4.6407 15.7885 4.65561 15.7694C5.00184 15.3012 5.31048 14.8076 5.57511 14.2885C5.59072 14.2581 5.57582 14.222 5.5439 14.21C5.05435 14.0261 4.5882 13.8019 4.1398 13.5473C4.10433 13.5268 4.10149 13.4766 4.13412 13.4525C4.22848 13.3825 4.32286 13.3097 4.41297 13.2361C4.42927 13.2227 4.45198 13.2199 4.47115 13.2284C7.41696 14.5601 10.6062 14.5601 13.5172 13.2284C13.5364 13.2192 13.5591 13.222 13.5761 13.2354C13.6662 13.309 13.7606 13.3825 13.8557 13.4525C13.8883 13.4766 13.8862 13.5268 13.8507 13.5473C13.4023 13.8069 12.9361 14.0261 12.4459 14.2093C12.414 14.2213 12.3998 14.2581 12.4154 14.2885C12.6857 14.8069 12.9943 15.3005 13.3342 15.7687C13.3484 15.7885 13.3739 15.797 13.3973 15.7899C14.8681 15.3394 16.3595 14.6598 17.8991 13.5403C17.9126 13.5304 17.9211 13.5155 17.9225 13.4992C18.2978 9.65475 17.2939 6.31526 15.2612 3.35482C15.2562 3.34492 15.2477 3.33785 15.2378 3.3336ZM6.01502 11.4737C5.12812 11.4737 4.39735 10.6675 4.39735 9.6774C4.39735 8.68728 5.11395 7.88106 6.01502 7.88106C6.92315 7.88106 7.64686 8.69435 7.63266 9.6774C7.63266 10.6675 6.91606 11.4737 6.01502 11.4737ZM11.9961 11.4737C11.1092 11.4737 10.3784 10.6675 10.3784 9.6774C10.3784 8.68728 11.095 7.88106 11.9961 7.88106C12.9042 7.88106 13.6279 8.69435 13.6137 9.6774C13.6137 10.6675 12.9042 11.4737 11.9961 11.4737Z" fill="white"/>
</svg>
