<svg width="58" height="40" viewBox="0 0 58 40" fill="none" xmlns="http://www.w3.org/2000/svg">
<path d="M45.6252 1.52241C43.3345 0.517316 40.8794 0 38.4001 0V9.6C39.6894 9.6 40.966 9.869 42.1571 10.3917C43.3483 10.9143 44.4305 11.6804 45.3422 12.6461C46.2538 13.6118 46.977 14.7583 47.4704 16.0201C47.9638 17.2819 48.1601 18.6343 48.1601 20C48.1601 21.3658 47.9638 22.7181 47.4704 23.9799C46.977 25.2417 46.2538 26.3882 45.3422 27.3539C44.4305 28.3197 43.3482 29.0857 42.1571 29.6084C40.966 30.131 39.6893 30.4 38.4001 30.4H31.6H24.8V35.2V40H31.6H38.4C40.8794 40 43.3345 39.4827 45.6251 38.4776C47.9157 37.4725 49.9971 35.9993 51.7502 34.1422C53.5034 32.285 54.8941 30.0802 55.8429 27.6537C56.7918 25.2272 57.2801 22.6265 57.2801 20C57.2801 17.3736 56.7918 14.7729 55.843 12.3463C54.8942 9.91983 53.5035 7.71505 51.7503 5.85787C49.9971 4.0007 47.9158 2.52751 45.6252 1.52241Z" fill="white"/>
<path d="M0 9.60003H13.6V40H23.2V9.60003H36.8V3.05176e-05H0V9.60003Z" fill="white"/>
</svg>
